<svg width="380" height="68" fill="none" xmlns="http://www.w3.org/2000/svg" viewBox="0 0 380 68">
    <style>
        #brevo { fill: #2F3133 } @media (prefers-color-scheme:dark) { #brevo { fill: #fff } }
    </style>
    <path d="M50 34c0 10.493-8.507 19-19 19s-19-8.507-19-19 8.507-19 19-19 19 8.507 19 19Z" fill="#0B996E"/>
    <path d="M26.284 33.982v-8.86h5.399c1.824 0 3.028 1.053 3.028 2.65 0 1.815-1.569 3.195-4.778 4.247-2.189.69-3.174 1.272-3.54 1.962h-.11Zm0 8.896v-3.703c0-1.635 1.386-3.231 3.32-3.849 1.715-.581 3.136-1.163 4.34-1.78 1.607.945 2.591 2.578 2.591 4.286 0 2.904-2.773 5.046-6.53 5.046h-3.721ZM23 46h7.296C35.843 46 40 42.55 40 37.976c0-2.507-1.276-4.756-3.538-6.21 1.167-1.162 1.715-2.505 1.715-4.139 0-3.376-2.445-5.627-6.129-5.627H23v24Z" fill="#F6F7FF"/>
    <path id="brevo" d="M67.288 45.328c-.214 0-.32-.107-.32-.32v-21.76c0-.213.106-.32.32-.32h2.432c.213 0 .32.107.32.32v19.296c0 .085.042.128.128.128h11.04c.213 0 .32.107.32.32v2.016c0 .213-.107.32-.32.32h-13.92ZM90.786 28.784c1.301 0 2.432.235 3.392.704.981.448 1.728 1.088 2.24 1.92.533.81.8 1.739.8 2.784v10.816c0 .213-.107.32-.32.32h-2.432c-.214 0-.32-.107-.32-.32v-1.152c0-.107-.054-.128-.16-.064-.555.576-1.238 1.024-2.048 1.344-.79.299-1.675.448-2.656.448-1.579 0-2.89-.395-3.936-1.184-1.024-.81-1.536-2.027-1.536-3.648 0-1.664.576-2.965 1.728-3.904 1.173-.96 2.805-1.44 4.896-1.44h3.584c.085 0 .128-.043.128-.128v-.864c0-.939-.278-1.664-.832-2.176-.534-.533-1.355-.8-2.464-.8-.896 0-1.632.181-2.208.544-.555.341-.896.81-1.024 1.408-.064.213-.192.31-.384.288l-2.592-.352c-.214-.043-.31-.128-.288-.256.17-1.259.842-2.283 2.016-3.072 1.173-.81 2.645-1.216 4.416-1.216Zm-.832 14.208c1.13 0 2.112-.299 2.944-.896.832-.597 1.248-1.355 1.248-2.272v-1.888c0-.085-.043-.128-.128-.128H91.01c-1.259 0-2.262.245-3.008.736-.747.49-1.12 1.173-1.12 2.048 0 .79.277 1.387.832 1.792.576.405 1.322.608 2.24.608ZM108.501 28.88c.683 0 1.301.139 1.856.416.149.064.203.192.16.384l-.512 2.4c-.021.192-.149.256-.384.192-.363-.15-.789-.224-1.28-.224l-.448.032c-1.003.043-1.835.395-2.496 1.056-.64.64-.96 1.483-.96 2.528v9.344c0 .213-.107.32-.32.32h-2.432c-.213 0-.32-.107-.32-.32V29.36c0-.213.107-.32.32-.32h2.432c.213 0 .32.107.32.32v1.696c0 .064.011.107.032.128.043 0 .075-.021.096-.064.96-1.493 2.272-2.24 3.936-2.24ZM119.067 28.784c1.301 0 2.432.235 3.392.704.981.448 1.728 1.088 2.24 1.92.533.81.8 1.739.8 2.784v10.816c0 .213-.107.32-.32.32h-2.432c-.213 0-.32-.107-.32-.32v-1.152c0-.107-.053-.128-.16-.064a5.706 5.706 0 0 1-2.048 1.344c-.789.299-1.675.448-2.656.448-1.579 0-2.891-.395-3.936-1.184-1.024-.81-1.536-2.027-1.536-3.648 0-1.664.576-2.965 1.728-3.904 1.173-.96 2.805-1.44 4.896-1.44h3.584c.085 0 .128-.043.128-.128v-.864c0-.939-.277-1.664-.832-2.176-.533-.533-1.355-.8-2.464-.8-.896 0-1.632.181-2.208.544-.555.341-.896.81-1.024 1.408-.064.213-.192.31-.384.288l-2.592-.352c-.213-.043-.309-.128-.288-.256.171-1.259.843-2.283 2.016-3.072 1.173-.81 2.645-1.216 4.416-1.216Zm-.832 14.208c1.131 0 2.112-.299 2.944-.896.832-.597 1.248-1.355 1.248-2.272v-1.888c0-.085-.043-.128-.128-.128h-3.008c-1.259 0-2.261.245-3.008.736-.747.49-1.12 1.173-1.12 2.048 0 .79.277 1.387.832 1.792.576.405 1.323.608 2.24.608ZM133.653 45.328c-.192 0-.32-.085-.384-.256l-5.216-15.68-.032-.128c0-.15.096-.224.288-.224h2.688c.192 0 .32.085.384.256l3.52 11.584c.021.043.053.064.096.064.043 0 .075-.021.096-.064l3.488-11.584c.064-.17.192-.256.384-.256l2.688.032c.235 0 .32.117.256.352l-5.184 15.648c-.064.17-.192.256-.384.256h-2.688ZM157.549 35.152c.085.875.117 1.856.096 2.944 0 .213-.107.32-.32.32h-10.208c-.085 0-.128.043-.128.128 0 .725.064 1.28.192 1.664.235.853.704 1.525 1.408 2.016.725.47 1.632.704 2.72.704 1.579 0 2.795-.65 3.648-1.952.107-.213.245-.245.416-.096l1.824 1.216c.149.128.181.267.096.416-.597.96-1.451 1.717-2.56 2.272-1.088.555-2.325.832-3.712.832-1.557 0-2.869-.341-3.936-1.024-1.067-.683-1.867-1.653-2.4-2.912-.512-1.259-.768-2.784-.768-4.576 0-1.557.117-2.741.352-3.552.384-1.472 1.152-2.635 2.304-3.488 1.152-.853 2.549-1.28 4.192-1.28 2.155 0 3.765.544 4.832 1.632 1.067 1.067 1.717 2.645 1.952 4.736Zm-6.784-3.712c-.917 0-1.675.235-2.272.704-.597.448-1.003 1.056-1.216 1.824-.149.47-.245 1.067-.288 1.792 0 .085.043.128.128.128h7.328c.085 0 .128-.043.128-.128-.043-.704-.107-1.227-.192-1.568-.213-.832-.64-1.493-1.28-1.984-.619-.512-1.397-.768-2.336-.768ZM161.841 45.328c-.213 0-.32-.107-.32-.32v-21.76c0-.213.107-.32.32-.32h2.432c.214 0 .32.107.32.32v21.76c0 .213-.106.32-.32.32h-2.432ZM187.779 33.648c-.107.064-.107.128 0 .192 2.261.96 3.392 2.741 3.392 5.344 0 1.963-.651 3.477-1.952 4.544-1.302 1.067-2.998 1.6-5.088 1.6h-7.968c-.214 0-.32-.107-.32-.32v-21.76c0-.213.106-.32.32-.32h7.712c2.218 0 3.936.512 5.152 1.536 1.237 1.003 1.856 2.475 1.856 4.416 0 2.304-1.035 3.893-3.104 4.768Zm-8.736-8.064c-.086 0-.128.043-.128.128v6.752c0 .085.042.128.128.128h4.832c1.237 0 2.208-.31 2.912-.928.725-.619 1.088-1.461 1.088-2.528 0-1.088-.363-1.952-1.088-2.592-.704-.64-1.675-.96-2.912-.96h-4.832Zm5.088 17.056c1.216 0 2.176-.33 2.88-.992.725-.683 1.088-1.6 1.088-2.752 0-1.152-.363-2.059-1.088-2.72-.726-.683-1.718-1.024-2.976-1.024h-4.992c-.086 0-.128.043-.128.128v7.232c0 .085.042.128.128.128h5.088ZM202.564 28.88c.682 0 1.301.139 1.856.416.149.064.202.192.16.384l-.512 2.4c-.022.192-.15.256-.384.192-.363-.15-.79-.224-1.28-.224l-.448.032c-1.003.043-1.835.395-2.496 1.056-.64.64-.96 1.483-.96 2.528v9.344c0 .213-.107.32-.32.32h-2.432c-.214 0-.32-.107-.32-.32V29.36c0-.213.106-.32.32-.32h2.432c.213 0 .32.107.32.32v1.696c0 .064.01.107.032.128.042 0 .074-.021.096-.064.96-1.493 2.272-2.24 3.936-2.24ZM220.237 35.152c.085.875.117 1.856.096 2.944 0 .213-.107.32-.32.32h-10.208c-.086 0-.128.043-.128.128 0 .725.064 1.28.192 1.664.234.853.704 1.525 1.408 2.016.725.47 1.632.704 2.72.704 1.578 0 2.794-.65 3.648-1.952.106-.213.245-.245.416-.096l1.824 1.216c.149.128.181.267.096.416-.598.96-1.451 1.717-2.56 2.272-1.088.555-2.326.832-3.712.832-1.558 0-2.87-.341-3.936-1.024-1.067-.683-1.867-1.653-2.4-2.912-.512-1.259-.768-2.784-.768-4.576 0-1.557.117-2.741.352-3.552.384-1.472 1.152-2.635 2.304-3.488 1.152-.853 2.549-1.28 4.192-1.28 2.154 0 3.765.544 4.832 1.632 1.066 1.067 1.717 2.645 1.952 4.736Zm-6.784-3.712c-.918 0-1.675.235-2.272.704-.598.448-1.003 1.056-1.216 1.824-.15.47-.246 1.067-.288 1.792 0 .085.042.128.128.128h7.328c.085 0 .128-.043.128-.128-.043-.704-.107-1.227-.192-1.568-.214-.832-.64-1.493-1.28-1.984-.619-.512-1.398-.768-2.336-.768ZM227.934 45.328c-.192 0-.32-.085-.384-.256l-5.216-15.68-.032-.128c0-.15.096-.224.288-.224h2.688c.192 0 .32.085.384.256l3.52 11.584c.022.043.054.064.096.064.043 0 .075-.021.096-.064l3.488-11.584c.064-.17.192-.256.384-.256l2.688.032c.235 0 .32.117.256.352l-5.184 15.648c-.064.17-.192.256-.384.256h-2.688ZM245.302 45.584c-1.578 0-2.954-.395-4.128-1.184-1.173-.81-1.994-1.93-2.464-3.36-.384-1.152-.576-2.453-.576-3.904 0-1.515.182-2.795.544-3.84.47-1.408 1.291-2.507 2.464-3.296 1.174-.81 2.571-1.216 4.192-1.216 1.536 0 2.87.405 4 1.216 1.152.79 1.974 1.877 2.464 3.264.384 1.088.576 2.368.576 3.84 0 1.493-.192 2.805-.576 3.936-.469 1.43-1.28 2.55-2.432 3.36-1.152.79-2.506 1.184-4.064 1.184Zm0-2.656c.854 0 1.6-.235 2.24-.704.64-.49 1.099-1.173 1.376-2.048.235-.81.352-1.813.352-3.008s-.106-2.187-.32-2.976c-.277-.875-.736-1.547-1.376-2.016-.64-.49-1.418-.736-2.336-.736-.874 0-1.632.245-2.272.736-.64.47-1.098 1.141-1.376 2.016-.234.747-.352 1.739-.352 2.976 0 1.237.118 2.24.352 3.008.256.875.704 1.557 1.344 2.048.662.47 1.451.704 2.368.704ZM276.371 23.248c0-.213.106-.32.32-.32h2.432c.213 0 .32.107.32.32v21.76c0 .213-.107.32-.32.32h-2.336c-.15 0-.278-.075-.384-.224l-10.016-16.352c-.022-.064-.054-.085-.096-.064-.043 0-.064.032-.064.096l.032 16.224c0 .213-.107.32-.32.32h-2.432c-.214 0-.32-.107-.32-.32v-21.76c0-.213.106-.32.32-.32h2.368c.149 0 .277.075.384.224l9.984 16.352c.021.064.053.096.096.096.042-.021.064-.064.064-.128l-.032-16.224ZM290.99 45.584c-1.579 0-2.955-.395-4.128-1.184-1.174-.81-1.995-1.93-2.464-3.36-.384-1.152-.576-2.453-.576-3.904 0-1.515.181-2.795.544-3.84.469-1.408 1.29-2.507 2.464-3.296 1.173-.81 2.57-1.216 4.192-1.216 1.536 0 2.869.405 4 1.216 1.152.79 1.973 1.877 2.464 3.264.384 1.088.576 2.368.576 3.84 0 1.493-.192 2.805-.576 3.936-.47 1.43-1.28 2.55-2.432 3.36-1.152.79-2.507 1.184-4.064 1.184Zm0-2.656c.853 0 1.6-.235 2.24-.704.64-.49 1.098-1.173 1.376-2.048.234-.81.352-1.813.352-3.008s-.107-2.187-.32-2.976c-.278-.875-.736-1.547-1.376-2.016-.64-.49-1.419-.736-2.336-.736-.875 0-1.632.245-2.272.736-.64.47-1.099 1.141-1.376 2.016-.235.747-.352 1.739-.352 2.976 0 1.237.117 2.24.352 3.008.256.875.704 1.557 1.344 2.048.661.47 1.45.704 2.368.704ZM309.835 31.248c0 .213-.107.32-.32.32h-3.456c-.086 0-.128.043-.128.128v8.48c0 .896.202 1.547.608 1.952.405.384 1.034.576 1.888.576h.928c.213 0 .32.107.32.32v1.984c0 .213-.107.32-.32.32-.683.043-1.174.064-1.472.064-1.622 0-2.848-.288-3.68-.864-.811-.597-1.216-1.685-1.216-3.264v-9.568c0-.085-.043-.128-.128-.128h-1.952c-.214 0-.32-.107-.32-.32V29.36c0-.213.106-.32.32-.32h1.952c.085 0 .128-.043.128-.128v-3.776c0-.213.106-.32.32-.32h2.304c.213 0 .32.107.32.32v3.776c0 .085.042.128.128.128h3.456c.213 0 .32.107.32.32v1.888ZM315.471 26.48c-.597 0-1.088-.192-1.472-.576-.384-.384-.576-.875-.576-1.472s.192-1.088.576-1.472c.384-.384.875-.576 1.472-.576s1.088.192 1.472.576c.384.384.576.875.576 1.472s-.192 1.088-.576 1.472c-.384.384-.875.576-1.472.576Zm-1.28 18.816c-.213 0-.32-.107-.32-.32V29.36c0-.213.107-.32.32-.32h2.432c.213 0 .32.107.32.32v15.616c0 .213-.107.32-.32.32h-2.432ZM328.939 25.616c-1.066 0-1.792.203-2.176.608-.384.405-.576 1.173-.576 2.304v.384c0 .085.043.128.128.128h3.36c.214 0 .32.107.32.32v2.176c0 .213-.106.32-.32.32h-3.36c-.085 0-.128.043-.128.128v13.024c0 .213-.106.32-.32.32h-2.432c-.213 0-.32-.107-.32-.32V31.984c0-.085-.042-.128-.128-.128h-2.144c-.213 0-.32-.107-.32-.32V29.36c0-.213.107-.32.32-.32h2.144c.086 0 .128-.043.128-.128v-.576c0-1.408.16-2.496.48-3.264a3.037 3.037 0 0 1 1.696-1.632c.79-.341 1.899-.512 3.328-.512h1.088c.214 0 .32.107.32.32v2.048c0 .213-.106.32-.32.32h-.768Zm6.432.864c-.597 0-1.088-.192-1.472-.576-.384-.384-.576-.875-.576-1.472s.192-1.088.576-1.472c.384-.384.875-.576 1.472-.576.598 0 1.088.192 1.472.576.384.384.576.875.576 1.472s-.192 1.088-.576 1.472c-.384.384-.874.576-1.472.576Zm-1.28 18.816c-.213 0-.32-.107-.32-.32V29.36c0-.213.107-.32.32-.32h2.432c.214 0 .32.107.32.32v15.616c0 .213-.106.32-.32.32h-2.432ZM354.862 35.152c.085.875.117 1.856.096 2.944 0 .213-.107.32-.32.32H344.43c-.086 0-.128.043-.128.128 0 .725.064 1.28.192 1.664.234.853.704 1.525 1.408 2.016.725.47 1.632.704 2.72.704 1.578 0 2.794-.65 3.648-1.952.106-.213.245-.245.416-.096l1.824 1.216c.149.128.181.267.096.416-.598.96-1.451 1.717-2.56 2.272-1.088.555-2.326.832-3.712.832-1.558 0-2.87-.341-3.936-1.024-1.067-.683-1.867-1.653-2.4-2.912-.512-1.259-.768-2.784-.768-4.576 0-1.557.117-2.741.352-3.552.384-1.472 1.152-2.635 2.304-3.488 1.152-.853 2.549-1.28 4.192-1.28 2.154 0 3.765.544 4.832 1.632 1.066 1.067 1.717 2.645 1.952 4.736Zm-6.784-3.712c-.918 0-1.675.235-2.272.704-.598.448-1.003 1.056-1.216 1.824-.15.47-.246 1.067-.288 1.792 0 .085.042.128.128.128h7.328c.085 0 .128-.043.128-.128-.043-.704-.107-1.227-.192-1.568-.214-.832-.64-1.493-1.28-1.984-.619-.512-1.398-.768-2.336-.768ZM365.97 28.88c.682 0 1.301.139 1.856.416.149.064.202.192.16.384l-.512 2.4c-.022.192-.15.256-.384.192-.363-.15-.79-.224-1.28-.224l-.448.032c-1.003.043-1.835.395-2.496 1.056-.64.64-.96 1.483-.96 2.528v9.344c0 .213-.107.32-.32.32h-2.432c-.214 0-.32-.107-.32-.32V29.36c0-.213.106-.32.32-.32h2.432c.213 0 .32.107.32.32v1.696c0 .064.01.107.032.128.042 0 .074-.021.096-.064.96-1.493 2.272-2.24 3.936-2.24Z" />
</svg>